# xmcd
#
# Track frame offsets: 
#        150
#        98387
#        117850
#        134182
#        150217
#        169362
#        186987
#
# Disc length: 2895 seconds
#
# Revision: 7
# Processed by: cddbd v1.5.2PL0 Copyright (c) Steve Scherf et al.
# Submitted via: ExactAudioCopy v0.99pb4
#
DISCID=560b4d07
DTITLE=Mike Oldfield - Islands
DYEAR=1987
DGENRE=Pop/Rock
TTITLE0=The Wind Chimes (Part One And Part Two)
TTITLE1=Islands
TTITLE2=Flying Start
TTITLE3=North Point
TTITLE4=Magic Touch
TTITLE5=The Time Has Come
TTITLE6=When The Night's On Fire
EXTD=© 2000\nDigitally Remastered -> HDCD\nLabel: Virgin Records Ltd.\n
EXTD=7243 8 49383 2 1
EXTT0=
EXTT1=
EXTT2=
EXTT3=
EXTT4=
EXTT5=
EXTT6=
PLAYORDER=
